<svg width="640" height="420" viewBox="0 0 640 420" fill="none" xmlns="http://www.w3.org/2000/svg" role="img" aria-labelledby="title desc">
  <title id="title">Full detail interior and exterior car cleaning</title>
  <desc id="desc">A complete car detail showing exterior shine, clean carpets, seat extraction and glass finishing.</desc>
  <defs>
    <linearGradient id="bg" x1="42" x2="596" y1="30" y2="388" gradientUnits="userSpaceOnUse">
      <stop stop-color="#F9FFFE"/>
      <stop offset="1" stop-color="#EAF9F5"/>
    </linearGradient>
    <linearGradient id="car" x1="112" x2="530" y1="130" y2="292" gradientUnits="userSpaceOnUse">
      <stop stop-color="#102235"/>
      <stop offset="1" stop-color="#215D9C"/>
    </linearGradient>
  </defs>
  <rect width="640" height="420" rx="34" fill="url(#bg)"/>
  <path d="M58 326h524" stroke="#102235" stroke-width="18" stroke-linecap="round" opacity=".12"/>
  <circle cx="512" cy="96" r="78" fill="#B7E364" opacity=".36"/>
  <path d="M116 252c16-69 70-108 154-108h102c82 0 134 39 153 108H116Z" fill="url(#car)"/>
  <path d="M172 158h236c34 0 64 21 81 60H137c9-38 22-60 35-60Z" fill="#21B7AA"/>
  <path d="M214 174h150c28 0 52 14 68 38H174c8-25 21-38 40-38Z" fill="#F2FFFF"/>
  <circle cx="210" cy="264" r="43" fill="#102235"/>
  <circle cx="210" cy="264" r="21" fill="#E9FCFC"/>
  <circle cx="454" cy="264" r="43" fill="#102235"/>
  <circle cx="454" cy="264" r="21" fill="#E9FCFC"/>
  <path d="M80 100h98M68 132h144M92 164h76" stroke="#B7E364" stroke-width="14" stroke-linecap="round"/>
  <path d="M464 82l21 43 47 12-42 23-13 47-25-41-48 4 32-36-18-45 46 17Z" fill="#FFD36A"/>
  <path d="M106 298h112M106 324h84M354 306h114" stroke="#21B7AA" stroke-width="12" stroke-linecap="round"/>
  <rect x="266" y="288" width="74" height="52" rx="13" fill="#FFFFFF" stroke="#21B7AA" stroke-width="8"/>
  <path d="M286 314h34" stroke="#102235" stroke-width="8" stroke-linecap="round"/>
  <path d="M526 240c-26 10-52 13-78 8" stroke="#FFFFFF" stroke-width="10" stroke-linecap="round"/>
  <text x="94" y="366" fill="#087D78" font-family="Inter, Arial, sans-serif" font-size="30" font-weight="900">FULL DETAIL: BODY + INTERIOR</text>
</svg>
