<svg width="640" height="420" viewBox="0 0 640 420" fill="none" xmlns="http://www.w3.org/2000/svg" role="img" aria-labelledby="title desc">
  <title id="title">Express wash exterior foam cannon service</title>
  <desc id="desc">A car exterior covered with foam from a pressure washer foam cannon, representing a quick outside wash.</desc>
  <defs>
    <linearGradient id="bg" x1="40" x2="600" y1="30" y2="390" gradientUnits="userSpaceOnUse">
      <stop stop-color="#F8FFFF"/>
      <stop offset="1" stop-color="#DDF6F5"/>
    </linearGradient>
    <linearGradient id="teal" x1="118" x2="536" y1="130" y2="302" gradientUnits="userSpaceOnUse">
      <stop stop-color="#21B7AA"/>
      <stop offset="1" stop-color="#087D78"/>
    </linearGradient>
  </defs>
  <rect width="640" height="420" rx="34" fill="url(#bg)"/>
  <circle cx="526" cy="88" r="78" fill="#B7E364" opacity=".42"/>
  <circle cx="122" cy="312" r="92" fill="#215D9C" opacity=".08"/>
  <path d="M116 262c15-66 65-100 148-104h112c74 0 123 37 148 104H116Z" fill="url(#teal)"/>
  <path d="M176 162h208c36 0 67 20 86 55H140c10-33 22-55 36-55Z" fill="#102235"/>
  <path d="M211 176h148c27 0 50 12 65 33H174c8-21 21-33 37-33Z" fill="#E9FCFC"/>
  <path d="M128 258h412" stroke="#102235" stroke-width="14" stroke-linecap="round"/>
  <circle cx="210" cy="267" r="39" fill="#102235"/>
  <circle cx="210" cy="267" r="19" fill="#E9FCFC"/>
  <circle cx="458" cy="267" r="39" fill="#102235"/>
  <circle cx="458" cy="267" r="19" fill="#E9FCFC"/>
  <path d="M86 96h106M70 130h148M96 164h88" stroke="#21B7AA" stroke-width="15" stroke-linecap="round"/>
  <path d="M82 229c48-42 112-65 190-70M126 244c54-34 114-50 180-48M382 124l88-42 25 52-89 42-24-52Z" stroke="#102235" stroke-width="13" stroke-linecap="round" stroke-linejoin="round"/>
  <path d="M473 74l31-15 38 77-31 15-38-77Z" fill="#215D9C"/>
  <path d="M378 122c-28 8-54 26-77 55" stroke="#21B7AA" stroke-width="12" stroke-linecap="round"/>
  <circle cx="126" cy="112" r="16" fill="#fff"/>
  <circle cx="164" cy="94" r="12" fill="#fff"/>
  <circle cx="189" cy="134" r="11" fill="#fff"/>
  <circle cx="247" cy="146" r="14" fill="#fff"/>
  <circle cx="298" cy="142" r="10" fill="#fff"/>
  <circle cx="342" cy="152" r="13" fill="#fff"/>
  <text x="80" y="358" fill="#087D78" font-family="Inter, Arial, sans-serif" font-size="30" font-weight="900">EXTERIOR FOAM WASH</text>
</svg>
